<mxfile host="app.diagrams.net" modified="2023-12-09T09:34:58.359Z" agent="Mozilla/5.0 (Windows NT 10.0; Win64; x64) AppleWebKit/537.36 (KHTML, like Gecko) Chrome/120.0.0.0 Safari/537.36 Edg/120.0.0.0" etag="LrQKnR2qNxtATh5NU1tw" version="22.1.7" type="device">
  <diagram name="Страница — 1" id="9PPW91S5YazYH3etjbVU">
    <mxGraphModel dx="1386" dy="785" grid="1" gridSize="10" guides="1" tooltips="1" connect="1" arrows="1" fold="1" page="1" pageScale="1" pageWidth="291" pageHeight="413" math="0" shadow="0">
      <root>
        <mxCell id="0" />
        <mxCell id="1" parent="0" />
        <mxCell id="IAuq0UvbWvnGV_zlZhoL-1" value="" style="rounded=0;whiteSpace=wrap;html=1;" parent="1" vertex="1">
          <mxGeometry x="117" y="50" width="640" height="640" as="geometry" />
        </mxCell>
        <mxCell id="IAuq0UvbWvnGV_zlZhoL-13" style="orthogonalLoop=1;jettySize=auto;html=1;exitX=1;exitY=0.3333333333333333;exitDx=0;exitDy=0;exitPerimeter=0;entryX=0;entryY=0.5;entryDx=0;entryDy=0;rounded=0;endArrow=none;endFill=0;" parent="1" source="IAuq0UvbWvnGV_zlZhoL-2" target="IAuq0UvbWvnGV_zlZhoL-7" edge="1">
          <mxGeometry relative="1" as="geometry" />
        </mxCell>
        <mxCell id="IAuq0UvbWvnGV_zlZhoL-14" style="rounded=0;orthogonalLoop=1;jettySize=auto;html=1;exitX=1;exitY=0.3333333333333333;exitDx=0;exitDy=0;exitPerimeter=0;entryX=0;entryY=0.5;entryDx=0;entryDy=0;endArrow=none;endFill=0;" parent="1" source="IAuq0UvbWvnGV_zlZhoL-2" target="IAuq0UvbWvnGV_zlZhoL-9" edge="1">
          <mxGeometry relative="1" as="geometry" />
        </mxCell>
        <mxCell id="IAuq0UvbWvnGV_zlZhoL-15" style="rounded=0;orthogonalLoop=1;jettySize=auto;html=1;exitX=1;exitY=0.3333333333333333;exitDx=0;exitDy=0;exitPerimeter=0;entryX=0;entryY=0.5;entryDx=0;entryDy=0;endArrow=none;endFill=0;" parent="1" source="IAuq0UvbWvnGV_zlZhoL-2" target="IAuq0UvbWvnGV_zlZhoL-8" edge="1">
          <mxGeometry relative="1" as="geometry" />
        </mxCell>
        <mxCell id="IAuq0UvbWvnGV_zlZhoL-16" style="rounded=0;orthogonalLoop=1;jettySize=auto;html=1;exitX=1;exitY=0.3333333333333333;exitDx=0;exitDy=0;exitPerimeter=0;entryX=0;entryY=0.5;entryDx=0;entryDy=0;endArrow=none;endFill=0;" parent="1" source="IAuq0UvbWvnGV_zlZhoL-2" target="IAuq0UvbWvnGV_zlZhoL-10" edge="1">
          <mxGeometry relative="1" as="geometry" />
        </mxCell>
        <mxCell id="IAuq0UvbWvnGV_zlZhoL-17" style="rounded=0;orthogonalLoop=1;jettySize=auto;html=1;exitX=1;exitY=0.3333333333333333;exitDx=0;exitDy=0;exitPerimeter=0;entryX=0;entryY=0.5;entryDx=0;entryDy=0;endArrow=none;endFill=0;" parent="1" source="IAuq0UvbWvnGV_zlZhoL-2" target="IAuq0UvbWvnGV_zlZhoL-11" edge="1">
          <mxGeometry relative="1" as="geometry" />
        </mxCell>
        <mxCell id="IAuq0UvbWvnGV_zlZhoL-2" value="Пользователь" style="shape=umlActor;verticalLabelPosition=bottom;verticalAlign=top;html=1;outlineConnect=0;fontStyle=0" parent="1" vertex="1">
          <mxGeometry x="40" y="330" width="30" height="60" as="geometry" />
        </mxCell>
        <mxCell id="IAuq0UvbWvnGV_zlZhoL-25" style="rounded=0;orthogonalLoop=1;jettySize=auto;html=1;exitX=0;exitY=0.3333333333333333;exitDx=0;exitDy=0;exitPerimeter=0;entryX=1;entryY=0.5;entryDx=0;entryDy=0;endArrow=none;endFill=0;" parent="1" source="IAuq0UvbWvnGV_zlZhoL-3" target="IAuq0UvbWvnGV_zlZhoL-24" edge="1">
          <mxGeometry relative="1" as="geometry" />
        </mxCell>
        <mxCell id="gJZ3itfyiQg5Xx9T8uVX-2" style="rounded=0;orthogonalLoop=1;jettySize=auto;html=1;exitX=0;exitY=0.3333333333333333;exitDx=0;exitDy=0;exitPerimeter=0;entryX=1;entryY=0.5;entryDx=0;entryDy=0;endArrow=none;endFill=0;" edge="1" parent="1" source="IAuq0UvbWvnGV_zlZhoL-3" target="gJZ3itfyiQg5Xx9T8uVX-1">
          <mxGeometry relative="1" as="geometry" />
        </mxCell>
        <mxCell id="IAuq0UvbWvnGV_zlZhoL-3" value="Разработчик&lt;br&gt;сайта" style="shape=umlActor;verticalLabelPosition=bottom;verticalAlign=top;html=1;outlineConnect=0;" parent="1" vertex="1">
          <mxGeometry x="810" y="330" width="30" height="60" as="geometry" />
        </mxCell>
        <mxCell id="IAuq0UvbWvnGV_zlZhoL-20" style="rounded=0;orthogonalLoop=1;jettySize=auto;html=1;exitX=1;exitY=0.5;exitDx=0;exitDy=0;entryX=0;entryY=0.5;entryDx=0;entryDy=0;dashed=1;strokeColor=default;" parent="1" source="IAuq0UvbWvnGV_zlZhoL-7" target="IAuq0UvbWvnGV_zlZhoL-19" edge="1">
          <mxGeometry relative="1" as="geometry" />
        </mxCell>
        <mxCell id="IAuq0UvbWvnGV_zlZhoL-21" value="«include»" style="edgeLabel;html=1;align=center;verticalAlign=middle;resizable=0;points=[];" parent="IAuq0UvbWvnGV_zlZhoL-20" connectable="0" vertex="1">
          <mxGeometry x="0.0137" relative="1" as="geometry">
            <mxPoint as="offset" />
          </mxGeometry>
        </mxCell>
        <mxCell id="IAuq0UvbWvnGV_zlZhoL-7" value="Подбор оптимальной сборки ПК" style="ellipse;whiteSpace=wrap;html=1;fontStyle=1" parent="1" vertex="1">
          <mxGeometry x="200" y="110" width="120" height="80" as="geometry" />
        </mxCell>
        <mxCell id="IAuq0UvbWvnGV_zlZhoL-8" value="Просмотр цен и наличия компонентов в интернет-магазинах" style="ellipse;whiteSpace=wrap;html=1;fontStyle=1" parent="1" vertex="1">
          <mxGeometry x="240" y="230" width="140" height="93.34" as="geometry" />
        </mxCell>
        <mxCell id="IAuq0UvbWvnGV_zlZhoL-9" value="Скачивание информации о сборке в виде файла" style="ellipse;whiteSpace=wrap;html=1;fontStyle=1" parent="1" vertex="1">
          <mxGeometry x="200" y="340" width="140" height="80" as="geometry" />
        </mxCell>
        <mxCell id="IAuq0UvbWvnGV_zlZhoL-10" value="Просмотр истории сборок" style="ellipse;whiteSpace=wrap;html=1;fontStyle=1" parent="1" vertex="1">
          <mxGeometry x="300" y="440" width="120" height="80" as="geometry" />
        </mxCell>
        <mxCell id="IAuq0UvbWvnGV_zlZhoL-33" style="rounded=0;orthogonalLoop=1;jettySize=auto;html=1;exitX=1;exitY=0.5;exitDx=0;exitDy=0;entryX=0;entryY=0.5;entryDx=0;entryDy=0;dashed=1;" parent="1" source="IAuq0UvbWvnGV_zlZhoL-11" target="IAuq0UvbWvnGV_zlZhoL-32" edge="1">
          <mxGeometry relative="1" as="geometry" />
        </mxCell>
        <mxCell id="IAuq0UvbWvnGV_zlZhoL-34" value="«include»" style="edgeLabel;html=1;align=center;verticalAlign=middle;resizable=0;points=[];" parent="IAuq0UvbWvnGV_zlZhoL-33" connectable="0" vertex="1">
          <mxGeometry x="-0.2753" y="1" relative="1" as="geometry">
            <mxPoint as="offset" />
          </mxGeometry>
        </mxCell>
        <mxCell id="IAuq0UvbWvnGV_zlZhoL-11" value="Ручной выбор компонентов с поддержкой рекомендаций" style="ellipse;whiteSpace=wrap;html=1;fontStyle=1" parent="1" vertex="1">
          <mxGeometry x="200" y="540" width="120" height="80" as="geometry" />
        </mxCell>
        <mxCell id="IAuq0UvbWvnGV_zlZhoL-19" value="Выбор критериев для подбора компонентов" style="ellipse;whiteSpace=wrap;html=1;" parent="1" vertex="1">
          <mxGeometry x="377" y="80" width="120" height="80" as="geometry" />
        </mxCell>
        <mxCell id="IAuq0UvbWvnGV_zlZhoL-24" value="Передача идентификатора элемента контейнера для встраивания приложения на страницу сайта" style="ellipse;whiteSpace=wrap;html=1;" parent="1" vertex="1">
          <mxGeometry x="544" y="303" width="142" height="110" as="geometry" />
        </mxCell>
        <mxCell id="IAuq0UvbWvnGV_zlZhoL-32" value="Подбор рекомендаций с учетом критериев и совместимости" style="ellipse;whiteSpace=wrap;html=1;" parent="1" vertex="1">
          <mxGeometry x="377" y="580" width="120" height="80" as="geometry" />
        </mxCell>
        <mxCell id="gkj2NV3aaAA6zyIig7L4-1" value="&lt;div style=&quot;font-size: 12px;&quot;&gt;&lt;font style=&quot;font-size: 12px;&quot;&gt;«WebApp»&lt;/font&gt;&lt;/div&gt;&lt;div style=&quot;font-size: 12px;&quot;&gt;&lt;font style=&quot;font-size: 12px;&quot;&gt;Приложение для сборки ПК по критериям&lt;/font&gt;&lt;/div&gt;" style="text;strokeColor=none;fillColor=none;html=1;fontSize=24;fontStyle=1;verticalAlign=middle;align=left;" parent="1" vertex="1">
          <mxGeometry x="117" y="50" width="313" height="40" as="geometry" />
        </mxCell>
        <mxCell id="gJZ3itfyiQg5Xx9T8uVX-1" value="Передача пути к файлу со списком компонентов" style="ellipse;whiteSpace=wrap;html=1;" vertex="1" parent="1">
          <mxGeometry x="555" y="460" width="120" height="80" as="geometry" />
        </mxCell>
      </root>
    </mxGraphModel>
  </diagram>
</mxfile>
